<?xml version="1.0" encoding="utf-8"?>
<!-- Generator: Adobe Illustrator 24.3.0, SVG Export Plug-In . SVG Version: 6.00 Build 0)  -->
<svg version="1.1" id="Layer_3" xmlns="http://www.w3.org/2000/svg" xmlns:xlink="http://www.w3.org/1999/xlink" x="0px" y="0px"
	 viewBox="0 0 1728 1296" style="enable-background:new 0 0 1728 1296;" xml:space="preserve">
<style type="text/css">
	.st0{fill:none;stroke:#000000;stroke-miterlimit:10;}
</style>
<path class="st0" d="M998.7,775.78H729.16V520.63H998.7V775.78z M957.47,697.81V598.6H770.39v99.21H957.47z M810.2,540.15
	c-2.54,0-4.61,2.06-4.61,4.61c0,2.54,2.06,4.61,4.61,4.61c2.54,0,4.61-2.06,4.61-4.61C814.81,542.21,812.74,540.15,810.2,540.15z
	 M974.61,540.15c-2.54,0-4.61,2.06-4.61,4.61c0,2.54,2.06,4.61,4.61,4.61c2.54,0,4.61-2.06,4.61-4.61
	C979.22,542.21,977.15,540.15,974.61,540.15z M753.23,747.13c-2.54,0-4.61,2.06-4.61,4.61s2.06,4.61,4.61,4.61
	c2.54,0,4.61-2.06,4.61-4.61S755.77,747.13,753.23,747.13z M974.63,747.13c-2.54,0-4.61,2.06-4.61,4.61s2.06,4.61,4.61,4.61
	c2.54,0,4.61-2.06,4.61-4.61S977.18,747.13,974.63,747.13z M905.33,547.25c-6.65,0-12.05,5.39-12.05,12.05s5.39,12.05,12.05,12.05
	c6.65,0,12.05-5.39,12.05-12.05S911.98,547.25,905.33,547.25z M775.73,723.65c-6.65,0-12.05,5.39-12.05,12.05
	c0,6.65,5.39,12.05,12.05,12.05s12.05-5.39,12.05-12.05C787.78,729.04,782.38,723.65,775.73,723.65z M818.93,723.65
	c-6.65,0-12.05,5.39-12.05,12.05c0,6.65,5.39,12.05,12.05,12.05s12.05-5.39,12.05-12.05C830.98,729.04,825.58,723.65,818.93,723.65z
	 M948.39,541.23c-10.37,0-18.78,8.41-18.78,18.78s8.41,18.78,18.78,18.78s18.78-8.41,18.78-18.78S958.76,541.23,948.39,541.23z
	 M890.79,717.63c-10.37,0-18.78,8.41-18.78,18.78c0,10.37,8.41,18.78,18.78,18.78s18.78-8.41,18.78-18.78
	C909.57,726.04,901.16,717.63,890.79,717.63z M948.39,717.63c-10.37,0-18.78,8.41-18.78,18.78c0,10.37,8.41,18.78,18.78,18.78
	s18.78-8.41,18.78-18.78C967.17,726.04,958.76,717.63,948.39,717.63z"/>
</svg>
