<?xml version="1.0" encoding="utf-8"?>
<!-- Generator: Adobe Illustrator 24.3.0, SVG Export Plug-In . SVG Version: 6.00 Build 0)  -->
<svg version="1.1" id="Layer_3" xmlns="http://www.w3.org/2000/svg" xmlns:xlink="http://www.w3.org/1999/xlink" x="0px" y="0px"
	 viewBox="0 0 1728 1296" style="enable-background:new 0 0 1728 1296;" xml:space="preserve">
<style type="text/css">
	.st0{fill:none;stroke:#000000;stroke-miterlimit:10;}
</style>
<path class="st0" d="M998.7,775.78H729.16V520.63H998.7V775.78z M957.47,697.81V598.6H770.39v99.21H957.47z M810.2,540.15
	c-2.54,0-4.61,2.06-4.61,4.61c0,2.54,2.06,4.61,4.61,4.61c2.54,0,4.61-2.06,4.61-4.61C814.81,542.21,812.74,540.15,810.2,540.15z
	 M974.61,540.15c-2.54,0-4.61,2.06-4.61,4.61c0,2.54,2.06,4.61,4.61,4.61c2.54,0,4.61-2.06,4.61-4.61
	C979.22,542.21,977.15,540.15,974.61,540.15z M753.23,747.13c-2.54,0-4.61,2.06-4.61,4.61s2.06,4.61,4.61,4.61
	c2.54,0,4.61-2.06,4.61-4.61S755.77,747.13,753.23,747.13z M974.63,747.13c-2.54,0-4.61,2.06-4.61,4.61s2.06,4.61,4.61,4.61
	c2.54,0,4.61-2.06,4.61-4.61S977.18,747.13,974.63,747.13z M905.33,543.71c-8.61,0-15.59,6.98-15.59,15.59s6.98,15.59,15.59,15.59
	c8.61,0,15.59-6.98,15.59-15.59S913.94,543.71,905.33,543.71z M775.73,720.11c-8.61,0-15.59,6.98-15.59,15.59
	c0,8.61,6.98,15.59,15.59,15.59s15.59-6.98,15.59-15.59C791.32,727.09,784.34,720.11,775.73,720.11z M818.93,720.11
	c-8.61,0-15.59,6.98-15.59,15.59c0,8.61,6.98,15.59,15.59,15.59s15.59-6.98,15.59-15.59C834.52,727.09,827.54,720.11,818.93,720.11z
	 M948.39,541.58c-10.18,0-18.43,8.25-18.43,18.43s8.25,18.43,18.43,18.43s18.43-8.25,18.43-18.43S958.57,541.58,948.39,541.58z
	 M890.79,717.98c-10.18,0-18.43,8.25-18.43,18.43c0,10.18,8.25,18.43,18.43,18.43s18.43-8.25,18.43-18.43
	C909.21,726.23,900.97,717.98,890.79,717.98z M948.39,717.98c-10.18,0-18.43,8.25-18.43,18.43c0,10.18,8.25,18.43,18.43,18.43
	s18.43-8.25,18.43-18.43C966.81,726.23,958.57,717.98,948.39,717.98z"/>
</svg>
