<svg xmlns="http://www.w3.org/2000/svg" viewBox="0 0 263.8 249.4"><defs><style>.cls-1{fill:none;stroke:#000;stroke-miterlimit:10;}</style></defs><g id="Layer_2" data-name="Layer 2"><g id="Layer_3" data-name="Layer 3"><path class="cls-1" d="M245.3,248.9H18.5a18,18,0,0,1-18-18V18.5a18,18,0,0,1,18-18H245.3a18,18,0,0,1,18,18V230.9A18,18,0,0,1,245.3,248.9Zm-19.86-74.59V75.09H38.36v99.22ZM78.17,16.64a4.61,4.61,0,1,0,4.61,4.61A4.61,4.61,0,0,0,78.17,16.64Zm164.41,0a4.61,4.61,0,1,0,4.6,4.61A4.6,4.6,0,0,0,242.58,16.64ZM21.2,223.62a4.61,4.61,0,1,0,4.6,4.61A4.6,4.6,0,0,0,21.2,223.62Zm221.4,0a4.61,4.61,0,1,0,4.61,4.61A4.6,4.6,0,0,0,242.6,223.62ZM173.3,23.9a12.6,12.6,0,1,0,12.6,12.6A12.6,12.6,0,0,0,173.3,23.9ZM43.7,200.3a12.6,12.6,0,1,0,12.6,12.6A12.6,12.6,0,0,0,43.7,200.3Zm43.2,0a12.6,12.6,0,1,0,12.6,12.6A12.6,12.6,0,0,0,86.9,200.3ZM216.36,17.37A19.13,19.13,0,1,0,235.49,36.5,19.13,19.13,0,0,0,216.36,17.37Zm-57.6,176.4a19.13,19.13,0,1,0,19.13,19.13A19.13,19.13,0,0,0,158.76,193.77Zm57.6,0a19.13,19.13,0,1,0,19.13,19.13A19.13,19.13,0,0,0,216.36,193.77Z"/></g></g></svg>